<svg xmlns="http://www.w3.org/2000/svg" xmlns:xlink="http://www.w3.org/1999/xlink" width="266" height="55" viewBox="0 0 266 55">
  <defs>
    <clipPath id="clip-Artboard_9">
      <rect width="266" height="55"/>
    </clipPath>
  </defs>
  <g id="Artboard_9" data-name="Artboard – 9" clip-path="url(#clip-Artboard_9)">
    <g id="Group_37" data-name="Group 37" transform="translate(51.648 19.813)">
      <g id="Group_23" data-name="Group 23">
        <path id="Path_24" data-name="Path 24" d="M190,174.13a3.1,3.1,0,0,0-2.38-2.915,2.193,2.193,0,0,0,.063-.517,2.475,2.475,0,0,0-2.573-2.358,2.671,2.671,0,0,0-1.93.8,2.672,2.672,0,0,0-1.93-.8,2.475,2.475,0,0,0-2.573,2.358,2.192,2.192,0,0,0,.063.517,3.1,3.1,0,0,0-2.38,2.915,2.82,2.82,0,0,0,.676,1.827,3.175,3.175,0,0,0-.676,1.948,3.307,3.307,0,0,0,1.544,2.744v0a2.842,2.842,0,0,0,2.959,2.7,3.064,3.064,0,0,0,2.316-1.024,3.064,3.064,0,0,0,2.316,1.024,2.862,2.862,0,0,0,2.952-2.535,3,3,0,0,0,1.55-2.569,2.894,2.894,0,0,0-.893-2.059A2.9,2.9,0,0,0,190,174.13Zm-2.273,2.627a1.713,1.713,0,0,1,.988,1.491,1.643,1.643,0,0,1-.566,1.207,2.883,2.883,0,0,0-1.688-1.36.642.642,0,0,0-.385,1.225,1.457,1.457,0,0,1,1.095,1.329,1.7,1.7,0,0,1-3.349,0v-4.118a1.564,1.564,0,0,1,1.674-1.417.642.642,0,1,0,0-1.284,3.139,3.139,0,0,0-1.674.476v-.82a.642.642,0,0,0-1.284,0v3.565a3.058,3.058,0,0,0-.709-.328.642.642,0,0,0-.385,1.225,1.457,1.457,0,0,1,1.095,1.329v1.373a1.7,1.7,0,0,1-3.349,0,1.3,1.3,0,0,1,.4-.917.642.642,0,1,0-.905-.911,2.731,2.731,0,0,0-.4.5,1.959,1.959,0,0,1-.642-1.416,2.187,2.187,0,0,1,1.816-2.033.642.642,0,1,0-.287-1.252,3.912,3.912,0,0,0-1.178.48,1.55,1.55,0,0,1-.351-.971,1.928,1.928,0,0,1,2.045-1.76h.017a.642.642,0,0,0,.545-.98l-.014-.024-.009-.011c-.01-.014-.02-.028-.031-.041h0a.953.953,0,0,1-.235-.616,1.31,1.31,0,0,1,2.576,0,.642.642,0,1,0,1.284,0,1.31,1.31,0,0,1,2.576,0,.9.9,0,0,1-.1.4,3.566,3.566,0,0,0-1.054.264.642.642,0,0,0,.5,1.183,2.318,2.318,0,0,1,.888-.18h.036a1.927,1.927,0,0,1,2.044,1.76,1.713,1.713,0,0,1-.988,1.491.642.642,0,0,0,0,1.136Z" transform="translate(-176.357 -168.34)"/>
      </g>
    </g>
    <text id="G" transform="translate(7 37)" font-size="49" font-family="SegoeUI-Bold, Segoe UI" font-weight="700"><tspan x="0" y="0">G</tspan></text>
    <text id="e" transform="translate(76 37)" font-size="49" font-family="SegoeUI-Bold, Segoe UI" font-weight="700"><tspan x="0" y="0">e</tspan></text>
    <g id="chip_1_" data-name="chip (1)" transform="translate(32.102 1.141)">
      <path id="Path_21" data-name="Path 21" d="M51.336,31.091h-12.5v-3.1h9.4a1.549,1.549,0,0,0,1.549-1.549V21.795h1.549a1.549,1.549,0,0,0,0-3.1h-3.1a1.549,1.549,0,0,0-1.549,1.549v4.648h-7.85v-3.1h3.2a1.549,1.549,0,0,0,0-3.1h-3.2V15.6a1.549,1.549,0,0,0-1.549-1.549h-3.1V1.549a1.549,1.549,0,0,0-3.1,0v12.5h-3.1v-9.4A1.549,1.549,0,0,0,26.443,3.1H21.795V1.549a1.549,1.549,0,0,0-3.1,0v3.1A1.549,1.549,0,0,0,20.245,6.2h4.648v7.85h-3.1v-3.2a1.549,1.549,0,0,0-3.1,0v3.2H15.6A1.549,1.549,0,0,0,14.048,15.6v3.1H1.549a1.549,1.549,0,0,0,0,3.1h12.5v3.1h-9.4A1.549,1.549,0,0,0,3.1,26.443v4.648H1.549a1.549,1.549,0,0,0,0,3.1h3.1A1.549,1.549,0,0,0,6.2,32.64V27.992h7.85v3.1h-3.2a1.549,1.549,0,0,0,0,3.1h3.2v3.1A1.549,1.549,0,0,0,15.6,38.838h3.1v12.5a1.549,1.549,0,1,0,3.1,0v-12.5h3.1v9.4a1.549,1.549,0,0,0,1.549,1.549h4.648v1.549a1.549,1.549,0,0,0,3.1,0v-3.1a1.549,1.549,0,0,0-1.549-1.549H27.992v-7.85h3.1v3.2a1.549,1.549,0,0,0,3.1,0v-3.2h3.1a1.549,1.549,0,0,0,1.549-1.549v-3.1h12.5a1.549,1.549,0,0,0,0-3.1Zm-15.6,4.648H17.146V17.146H35.739Z"/>
    </g>
  </g>
</svg>
