<svg xmlns="http://www.w3.org/2000/svg" xmlns:xlink="http://www.w3.org/1999/xlink" width="620" height="799" viewBox="0 0 620 799">
  <defs>
    <clipPath id="clip-hero_img">
      <rect width="620" height="799"/>
    </clipPath>
  </defs>
  <g id="hero_img" data-name="hero img" clip-path="url(#clip-hero_img)">
    <g id="Group_2" data-name="Group 2" transform="translate(41 137.438)">
      <path id="Path_4" data-name="Path 4" d="M642.607,558.7l-.93,12.406-18.918-6.2,7.752-9.3Z" transform="translate(-195.539 -136.294)" fill="#feb8b8"/>
      <path id="Path_5" data-name="Path 5" d="M722.378,553.951l-.932,12.1L710.9,567.6l-6.2-5.893,7.133-11.476Z" transform="translate(-206.457 -135.579)" fill="#feb8b8"/>
      <path id="Path_6" data-name="Path 6" d="M719.82,375.792s8.374,9.925-2.171,25.122S694.388,431,694.388,431l-23.574,44.661s-12.1,43.73-14.887,44.971-4.342-3.722-2.791,1.55.62,4.963-.62,5.274-4.652-.31-3.412,1.861,2.171,2.171-.31,2.171-3.412-1.55-3.412.62-2.171,7.133-2.171,7.133-15.2-4.342-15.817-6.2,4.032-2.791,3.1-4.652-1.24-1.861-1.24-4.652,1.861-3.412,1.861-3.412,1.55-.62.93-1.861-3.1-.62,0-2.171,15.819-49,15.819-49,0-23.574,4.032-31.326.93-62.959,10.548-63.579S719.82,375.792,719.82,375.792Z" transform="translate(-196.149 -111.872)" fill="#2f2e41"/>
      <path id="Path_7" data-name="Path 7" d="M725.933,396.722l-1.861,48.072s9.3,46.522,6.2,60.788-.93,12.406-2.791,14.887-3.412,1.24-1.861,3.412,2.478,2.791,0,5.274-3.722,8.374-3.722,8.374l-15.817-1.55s4.032-7.133,2.478-8.684-5.583.93-2.478-2.478,4.963-1.861,3.1-3.412-4.652-.93-2.171-3.412,5.274-2.478,2.791-3.412-5.274,0-4.032-1.861,2.791-4.032,2.791-4.032l-3.722-28.223s-4.342-9.3-3.1-13.336-5.274-37.217-5.274-37.217Z" transform="translate(-205.36 -115.124)" fill="#2f2e41"/>
      <path id="Path_8" data-name="Path 8" d="M716.9,560.151s3.1-3.1,4.032-1.24,7.752,18.609,3.722,19.849-9.925,2.478-13.026,1.55-9.614-5.274-17.368-5.274S680,571.624,680,570.384s-1.24-8.684,4.652-8.684,16.748-6.823,16.748-6.823,2.478-4.963,3.722-4.652.31,10.235.31,10.235S712.558,567.284,716.9,560.151Z" transform="translate(-203.151 -135.577)" fill="#2f2e41"/>
      <path id="Path_9" data-name="Path 9" d="M635.923,564.32s2.791-6.823,5.583-5.274.93,20.778.93,20.778-2.478,4.032-9.614,3.1-26.052-3.1-30.394-2.171S586.3,576.413,589.4,569.279c0,0,1.55-4.032,8.994-3.722s21.09-8.684,21.09-8.684,2.171-6.2,2.791-5.583,1.24,11.476,1.24,11.476S631.581,568.042,635.923,564.32Z" transform="translate(-191.025 -135.715)" fill="#2f2e41"/>
      <circle id="Ellipse_2" data-name="Ellipse 2" cx="17.989" cy="17.989" r="17.989" transform="translate(467.538 106.677)" fill="#feb8b8"/>
      <path id="Path_10" data-name="Path 10" d="M702.967,217.094s9.614,19.229,13.026,21.09-23.261,13.337-23.261,13.337-4.342-18.919-9.614-22.95S702.967,217.094,702.967,217.094Z" transform="translate(-203.485 -91.188)" fill="#feb8b8"/>
      <path id="Path_11" data-name="Path 11" d="M672.578,398.272l-1.24,11.786s-13.336-4.652-8.994-13.336Z" transform="translate(-200.697 -115.124)" fill="#feb8b8"/>
      <path id="Path_12" data-name="Path 12" d="M667.568,360.568c9.3,9.922,58.615,1.548,58.615,1.548l-.618-7.133,6.2-6.509-1.86-30.4s5.579-14.265,6.509-35.975a19.559,19.559,0,0,0-.24-3.989c-3.2-19.448-34.865-31.974-35.735-31.68-.438.144-5.1,2.573-9.964,5.129-5.585,2.934-11.434,6.036-11.434,6.036-7.445,2.8-6.2,47.457-8.686,51.488s0,17.982,0,17.982l-2.789,13.335S658.261,350.646,667.568,360.568Z" transform="translate(-200.958 -95.097)" fill="#f0f0f0"/>
      <path id="Path_13" data-name="Path 13" d="M698.76,264.372s8.684,26.052,6.823,43.73-22.02,68.232-22.02,68.232l-6.82,3.722v8.684l-4.8-13,13.2-27.595S668.674,252.9,698.76,264.372Z" transform="translate(-202.093 -97.361)" opacity="0.1"/>
      <path id="Path_14" data-name="Path 14" d="M693.486,254.292c9-4.961,22.646,8.07,36.911,22.022,5.123,5.009,8.086,4.505,9.785,1.8-3.2-19.448-34.865-31.974-35.735-31.68-.438.144-5.1,2.573-9.964,5.129Z" transform="translate(-204.963 -95.097)" opacity="0.1"/>
      <path id="Path_15" data-name="Path 15" d="M693.491,250.335l3.722-10.235s25.432-12.1,42.179,0l2.791,17.368s2.478,28.843-11.786,14.887S702.484,245.373,693.491,250.335Z" transform="translate(-204.964 -93.538)" fill="#f0f0f0"/>
      <path id="Path_16" data-name="Path 16" d="M696.259,259.536s8.684,26.052,6.823,43.73-22.02,68.232-22.02,68.232l-6.823,3.724v8.684l-14.266-4.032,3.1-10.235s-4.963-6.2-1.55-8.064,2.791-12.1,2.791-12.1S666.175,248.061,696.259,259.536Z" transform="translate(-200.497 -96.723)" fill="#f0f0f0"/>
      <path id="Path_17" data-name="Path 17" d="M702.917,218.649c-.294-1.39-.254-2.886-.92-4.141-1-1.881-3.3-2.669-5.419-2.854-2.71-.236-5.44.233-8.154.048s-5.613-1.22-6.964-3.581a16.434,16.434,0,0,0-1.519-2.867c-1.488-1.7-4.2-1.436-6.336-.708s-4.367,1.792-6.552,1.223c-1.838-5.141.425-11.071,4.339-14.878s9.191-5.855,14.433-7.382c6.914-2.014,14.695-3.2,21.051.179,9.218,4.906,12.471,17.892,11.62,27.571-.322,3.659-.847,7.8-3.8,10.271C710.356,225.15,704.226,224.839,702.917,218.649Z" transform="translate(-201.354 -86.453)" fill="#2f2e41"/>
      <rect id="Rectangle_1" data-name="Rectangle 1" width="388.53" height="248.832" transform="translate(0.166 0.22)" fill="#e6e6e6"/>
      <rect id="Rectangle_2" data-name="Rectangle 2" width="366.311" height="202.901" transform="translate(12.547 31.43)" fill="#fff"/>
      <rect id="Rectangle_3" data-name="Rectangle 3" width="388.53" height="16.506" fill="#0d6474"/>
      <circle id="Ellipse_3" data-name="Ellipse 3" cx="3.06" cy="3.06" r="3.06" transform="translate(9.207 5.379)" fill="#fff"/>
      <circle id="Ellipse_4" data-name="Ellipse 4" cx="3.06" cy="3.06" r="3.06" transform="translate(20.819 5.379)" fill="#fff"/>
      <circle id="Ellipse_5" data-name="Ellipse 5" cx="3.06" cy="3.06" r="3.06" transform="translate(32.431 5.379)" fill="#fff"/>
      <path id="Path_37" data-name="Path 37" d="M214.55,140.905l-24.23,23.928,24.23,23.927L220,183.308,201.68,164.984l18.475-18.475Z" transform="translate(-137.916 -81.036)" fill="#0d6474"/>
      <path id="Path_38" data-name="Path 38" d="M240.319,140.905l24.23,23.928-24.23,23.927-5.452-5.452,18.323-18.324-18.477-18.476Z" transform="translate(-143.832 -81.036)" fill="#0d6474"/>
      <path id="Path_65" data-name="Path 65" d="M331.053,147.833c-1.982,0-3.588,1.14-3.588,2.545s1.606,2.545,3.588,2.545H500.209c1.982,0,3.588-1.14,3.588-2.545s-1.606-2.545-3.588-2.545Z" transform="translate(-156.191 -81.959)" fill="#e6e6e6"/>
      <path id="Path_78" data-name="Path 78" d="M480.267,299.859H195.705c-2.909,0-5.266-1.679-5.269-3.749V245.886c0-2.07,2.361-3.749,5.269-3.749H480.267c2.909,0,5.266,1.679,5.27,3.749v50.224C485.534,298.179,483.176,299.857,480.267,299.859ZM195.705,243.635c-1.745,0-3.16,1.008-3.162,2.249v50.224c0,1.242,1.416,2.248,3.162,2.249H480.267c1.746,0,3.16-1.008,3.162-2.249V245.886c0-1.242-1.416-2.248-3.162-2.249Z" transform="translate(-137.931 -94.525)" fill="#e6e6e6"/>
      <circle id="Ellipse_13" data-name="Ellipse 13" cx="12.731" cy="12.731" r="12.731" transform="translate(74.346 163.72)" fill="#e6e6e6"/>
      <path id="Path_79" data-name="Path 79" d="M271.359,263.663a2.545,2.545,0,0,0-.007,5.091H391.364a2.545,2.545,0,0,0,0-5.091Z" transform="translate(-148.375 -97.394)" fill="#0d6474"/>
      <path id="Path_80" data-name="Path 80" d="M271.359,281.284a2.545,2.545,0,1,0-.007,5.091H323a2.545,2.545,0,0,0,.007-5.091Z" transform="translate(-148.375 -99.742)" fill="#0d6474"/>
      <path id="Path_81" data-name="Path 81" d="M329.818,165.428a2.554,2.554,0,0,0,0,5.091H440.679a2.554,2.554,0,0,0,0-5.091Z" transform="translate(-156.191 -84.304)" fill="#e6e6e6"/>
      <path id="Path_82" data-name="Path 82" d="M330.547,183.022a2.592,2.592,0,1,0,0,5.091H475.866a2.592,2.592,0,1,0,0-5.091Z" transform="translate(-156.191 -86.648)" fill="#e6e6e6"/>
    </g>
  </g>
</svg>
