<svg xmlns="http://www.w3.org/2000/svg" width="63" height="63" viewBox="0 0 63 63">
  <g id="Group_42" data-name="Group 42" transform="translate(-1868 706)">
    <rect id="Rectangle_11" data-name="Rectangle 11" width="63" height="63" rx="9" transform="translate(1868 -706)"/>
    <g id="Group_38" data-name="Group 38" transform="translate(1877.29 -699.133)">
      <g id="Group_23" data-name="Group 23">
        <path id="Path_24" data-name="Path 24" d="M220.831,187.22a10.115,10.115,0,0,0-7.76-9.5,7.145,7.145,0,0,0,.206-1.686c0-4.24-3.763-7.69-8.389-7.69a8.71,8.71,0,0,0-6.295,2.615,8.711,8.711,0,0,0-6.295-2.615c-4.626,0-8.389,3.449-8.389,7.69a7.146,7.146,0,0,0,.206,1.686,10.114,10.114,0,0,0-7.76,9.5,9.2,9.2,0,0,0,2.205,5.959,10.355,10.355,0,0,0-2.205,6.351,10.784,10.784,0,0,0,5.035,8.947v.005c0,4.857,4.328,8.809,9.648,8.809a9.992,9.992,0,0,0,7.554-3.338,9.991,9.991,0,0,0,7.554,3.338c5.12,0,9.319-3.66,9.628-8.265a9.788,9.788,0,0,0,5.056-8.377,9.438,9.438,0,0,0-2.912-6.714A9.439,9.439,0,0,0,220.831,187.22Zm-7.411,8.566a5.587,5.587,0,0,1,3.222,4.863,5.357,5.357,0,0,1-1.845,3.937,9.4,9.4,0,0,0-5.505-4.434,2.094,2.094,0,0,0-1.255,4,4.751,4.751,0,0,1,3.569,4.335c0,2.548-2.449,4.621-5.46,4.621s-5.46-2.073-5.46-4.621V195.054c0-2.548,2.449-4.62,5.46-4.62a2.094,2.094,0,1,0,0-4.188,10.238,10.238,0,0,0-5.46,1.551v-2.675a2.094,2.094,0,1,0-4.188,0v11.625a9.968,9.968,0,0,0-2.314-1.071,2.094,2.094,0,1,0-1.256,4,4.75,4.75,0,0,1,3.569,4.334v4.476c0,2.548-2.449,4.621-5.46,4.621s-5.46-2.073-5.46-4.621a4.222,4.222,0,0,1,1.3-2.989,2.094,2.094,0,1,0-2.952-2.97,8.9,8.9,0,0,0-1.293,1.623,6.388,6.388,0,0,1-2.094-4.617c0-3.1,2.435-5.828,5.921-6.628a2.094,2.094,0,1,0-.936-4.082,12.754,12.754,0,0,0-3.842,1.565,5.053,5.053,0,0,1-1.143-3.165c0-3.15,2.987-5.714,6.667-5.738.019,0,.037,0,.056,0a2.092,2.092,0,0,0,1.777-3.2c-.016-.026-.03-.052-.047-.077s-.019-.025-.028-.037c-.032-.046-.066-.09-.1-.133l0,0a3.108,3.108,0,0,1-.766-2.008c0-1.931,1.885-3.5,4.2-3.5s4.2,1.571,4.2,3.5a2.094,2.094,0,1,0,4.188,0c0-1.931,1.885-3.5,4.2-3.5s4.2,1.571,4.2,3.5a2.944,2.944,0,0,1-.314,1.318,11.63,11.63,0,0,0-3.437.862,2.094,2.094,0,0,0,1.627,3.859,7.557,7.557,0,0,1,2.895-.586l.06,0c.019,0,.037,0,.056,0,3.681.024,6.667,2.588,6.667,5.738a5.587,5.587,0,0,1-3.222,4.863,2.094,2.094,0,0,0,0,3.7Z" transform="translate(-176.357 -168.34)" fill="#0d93ac"/>
      </g>
    </g>
  </g>
</svg>
